# xmcd
#
# Track frame offsets: 
#        150
#        11110
#        23105
#        35490
#        47865
#        59319
#        72215
#        83002
#        94685
#        105456
#        117761
#        130612
#
# Disc length: 1871 seconds
#
# Revision: 3
# Processed by: cddbd v1.5.2PL0 Copyright (c) Steve Scherf et al.
# Submitted via: ExactAudioCopy v0.99pb5
#
DISCID=92074d0c
DTITLE=Ricardo  Ray  Orchestra - Real Nitty Gritty
DYEAR=1968
DGENRE=Salsa
TTITLE0=Nitty Gritty
TTITLE1=California Sun
TTITLE2=Soul Man
TTITLE3=Shout
TTITLE4=You Talk To Much
TTITLE5=Sookie, Sookie
TTITLE6=Mony Mony
TTITLE7=Soul Mexico
TTITLE8=Coul Jerk
TTITLE9=I Want You To Be My Girl
TTITLE10=Ya, Ya
TTITLE11=Fanny Mae
EXTD=
EXTT0=
EXTT1=
EXTT2=
EXTT3=
EXTT4=
EXTT5=
EXTT6=
EXTT7=
EXTT8=
EXTT9=
EXTT10=
EXTT11=
PLAYORDER=
